<svg width="22" height="22" viewBox="0 0 22 22" fill="none" xmlns="http://www.w3.org/2000/svg">
<path d="M10.3528 2.9476C10.9836 2.88795 11.9391 2.97382 12.5615 3.09887C14.6543 3.53462 16.4917 4.77554 17.6777 6.55395C18.8981 8.39448 19.2668 10.5399 18.8271 12.6936C18.3854 14.7736 17.1352 16.5928 15.3518 17.7507C13.5847 18.9131 11.2416 19.3421 9.18126 18.8954C6.99794 18.4222 5.26806 17.1554 4.05657 15.3049C4.13362 15.2353 4.236 15.1652 4.3197 15.0993C5.08324 14.4991 5.75621 13.768 6.36603 13.0162C6.8286 12.439 7.26811 11.8435 7.68354 11.2314C8.1942 10.4849 9.27371 8.63044 9.9632 8.1943C10.0379 8.14705 10.1417 8.09615 10.2323 8.11677C10.2714 8.167 10.2596 8.24798 10.2462 8.30572C10.1671 8.64616 9.71556 9.32306 9.5238 9.66834C8.76678 11.0314 7.51202 13.3779 7.42878 14.9214C7.41148 15.242 7.43196 15.637 7.66414 15.8858C7.76452 15.9933 7.89697 16.06 8.04509 16.0615C8.66274 16.0681 9.60986 15.028 10.0344 14.5993C10.4587 14.16 10.8769 13.6938 11.3253 13.2648C11.6442 12.9597 12.2467 12.3992 12.7159 12.3889C12.841 12.3874 12.9481 12.5005 12.9709 12.6176C13.1405 13.4885 12.6574 14.985 13.3004 15.7124C13.482 15.9202 13.7408 16.0443 14.0165 16.0558C14.6829 16.0889 15.5144 15.55 15.9803 15.1095C16.5784 14.5439 17.0226 13.7911 17.3003 13.0193C17.3512 12.878 17.4271 12.6878 17.4355 12.5401C17.4384 12.4865 17.4247 12.4596 17.3877 12.4231C17.2598 12.3697 17.0828 12.4487 16.9472 12.4614C16.6545 12.4888 16.3431 12.4075 16.1169 12.2151C15.6984 11.8591 15.6887 11.2448 15.7836 10.7461C15.8522 10.3848 15.9819 10.0361 15.9495 9.66182C15.9371 9.518 15.898 9.34427 15.7789 9.25035C15.5957 9.10558 15.2891 9.187 15.09 9.26104C14.5345 9.46757 14.0162 9.81882 13.54 10.1672C13.0003 10.5622 11.9448 11.5439 11.2748 11.6068C11.1576 11.6179 11.0337 11.5987 10.943 11.518C10.1825 10.8409 12.0595 7.68527 12.4853 6.97688C12.7244 6.57898 13.0207 6.19879 13.2207 5.78043C13.3214 5.56993 13.4104 5.333 13.3961 5.09555C13.3879 4.96282 13.344 4.81944 13.2389 4.73137C12.3364 3.97613 8.59037 7.72038 7.92624 8.36605L6.86317 9.39212C6.6031 9.64108 6.32964 9.87855 6.06595 10.1208C5.60365 10.5528 5.16323 10.8931 4.52122 10.9761C3.7988 11.0696 3.05279 10.5354 3.01005 9.79027C2.93418 8.46743 3.84672 6.8419 4.65668 5.86251C5.79454 4.49835 7.34584 3.542 9.07578 3.13824C9.53378 3.03241 9.88946 2.99199 10.3528 2.9476Z" fill="black"/>
</svg>
